<svg width="88" height="113" viewBox="0 0 88 113" fill="none" xmlns="http://www.w3.org/2000/svg">
<path d="M63.5157 33.2834C63.0896 28.9865 61.2607 25.6484 58.0292 23.2692C54.7977 20.8899 50.412 19.7003 44.8722 19.7003C41.108 19.7003 37.9298 20.233 35.3374 21.2983C32.7451 22.3281 30.7565 23.7663 29.3715 25.6129C28.0221 27.4595 27.3474 29.5547 27.3474 31.8984C27.2764 33.8516 27.6847 35.5561 28.5725 37.0121C29.4958 38.468 30.7565 39.7287 32.3545 40.794C33.9525 41.8239 35.7991 42.7294 37.8943 43.5107C39.9894 44.2564 42.2267 44.8956 44.6059 45.4283L54.4071 47.772C59.1656 48.8374 63.5335 50.2578 67.5107 52.0334C71.488 53.8089 74.9326 55.9929 77.8446 58.5852C80.7565 61.1776 83.0115 64.2315 84.6095 67.7472C86.243 71.2628 87.0775 75.2933 87.113 79.8388C87.0775 86.5149 85.373 92.3033 81.9994 97.2038C78.6613 102.069 73.8318 105.851 67.5107 108.55C61.2252 111.213 53.6436 112.545 44.7657 112.545C35.9589 112.545 28.2884 111.195 21.7544 108.496C15.2558 105.798 10.1776 101.803 6.51998 96.5114C2.89782 91.1847 0.997958 84.5973 0.820401 76.7493H23.1393C23.3879 80.407 24.4355 83.4609 26.282 85.9112C28.1642 88.326 30.6677 90.1548 33.7927 91.3977C36.9532 92.6051 40.5221 93.2088 44.4994 93.2088C48.4056 93.2088 51.797 92.6406 54.6734 91.5043C57.5853 90.3679 59.8403 88.7876 61.4383 86.7635C63.0363 84.7393 63.8353 82.4134 63.8353 79.7855C63.8353 77.3352 63.1073 75.2756 61.6514 73.6065C60.2309 71.9375 58.1357 70.517 55.3659 69.3452C52.6315 68.1733 49.2757 67.108 45.2984 66.1491L33.4198 63.1662C24.2224 60.929 16.9603 57.4311 11.6336 52.6726C6.30691 47.9141 3.66131 41.5043 3.69682 33.4432C3.66131 26.8381 5.41912 21.0675 8.97026 16.1314C12.5569 11.1953 17.4752 7.34233 23.7252 4.57244C29.9752 1.80255 37.0775 0.41761 45.0321 0.41761C53.1286 0.41761 60.1954 1.80255 66.2323 4.57244C72.3048 7.34233 77.0278 11.1953 80.4014 16.1314C83.7749 21.0675 85.515 26.7848 85.6215 33.2834H63.5157Z" fill="url(#paint0_linear_38_40)"/>
<defs>
<linearGradient id="paint0_linear_38_40" x1="98" y1="56" x2="68.4447" y2="104.7" gradientUnits="userSpaceOnUse">
<stop stop-color="#29C55C"/>
<stop offset="1" stop-color="#F6CC16"/>
</linearGradient>
</defs>
</svg>
